<?xml version="1.0" encoding="UTF-8" standalone="no"?>
<!DOCTYPE svg PUBLIC "-//W3C//DTD SVG 1.1//EN" "http://www.w3.org/Graphics/SVG/1.1/DTD/svg11.dtd">
<svg width="100%" height="100%" viewBox="0 0 192 192" version="1.1" xmlns="http://www.w3.org/2000/svg" xmlns:xlink="http://www.w3.org/1999/xlink" xml:space="preserve" xmlns:serif="http://www.serif.com/" style="fill-rule:evenodd;clip-rule:evenodd;stroke-linecap:round;stroke-linejoin:round;stroke-miterlimit:1.5;">
    <g id="Layer2">
        <g transform="matrix(0.999929,-0.0119039,0.0119039,0.999929,10.5966,-9.72892)">
            <path d="M16.545,40.227L112.777,41.373" style="fill:none;stroke:black;stroke-width:16px;"/>
        </g>
        <g transform="matrix(1,0,0,1,10.3106,-9.16497)">
            <path d="M63.515,23.043L63.515,36.79" style="fill:none;stroke:black;stroke-width:16px;"/>
        </g>
        <g transform="matrix(1,0,0,1,10.3106,-9.16497)">
            <path d="M15.399,144.479C60.838,119.809 83.122,83.609 92.919,40.609" style="fill:none;stroke:black;stroke-width:16px;"/>
        </g>
        <g transform="matrix(1,0,0,1,10.3106,-9.16497)">
            <path d="M38.311,68.486C46.031,85.662 60.12,101.719 81.081,112.783" style="fill:none;stroke:black;stroke-width:16px;"/>
        </g>
        <path d="M88.337,167.773L131.489,75.741L178.077,170.446" style="fill:none;stroke:black;stroke-width:16px;"/>
        <path d="M105.139,135.314L160.511,136.077" style="fill:none;stroke:black;stroke-width:16px;"/>
    </g>
</svg>
