<?xml version="1.0" encoding="UTF-8" standalone="no"?>
<!DOCTYPE svg PUBLIC "-//W3C//DTD SVG 1.1//EN" "http://www.w3.org/Graphics/SVG/1.1/DTD/svg11.dtd">
<svg width="100%" height="100%" viewBox="0 0 192 192" version="1.1" xmlns="http://www.w3.org/2000/svg" xmlns:xlink="http://www.w3.org/1999/xlink" xml:space="preserve" xmlns:serif="http://www.serif.com/" style="fill-rule:evenodd;clip-rule:evenodd;stroke-linecap:round;stroke-linejoin:round;stroke-miterlimit:1.5;">
    <g transform="matrix(0.896519,0,0,0.895093,10.4728,10.4921)">
        <g id="Layer2">
            <path d="M115.484,1.58L117.683,19.972C125.827,22.381 133.527,26.095 140.485,30.97L156.213,21.225C166.684,29.822 175.22,40.543 181.258,52.681L168.272,65.87C171.469,73.749 173.371,82.095 173.904,90.583L191.317,96.823C191.135,110.383 188.089,123.751 182.379,136.048L163.986,134.103C159.829,141.518 154.501,148.211 148.208,153.92L154.193,171.447C143.495,179.759 131.161,185.708 118.002,188.904L108.053,173.289C99.672,174.657 91.126,174.657 82.746,173.289L72.796,188.904C59.638,185.708 47.304,179.759 36.605,171.447L42.591,153.92C36.298,148.211 30.969,141.518 26.812,134.103L8.42,136.048C2.71,123.751 -0.336,110.383 -0.519,96.823L16.895,90.583C17.428,82.095 19.33,73.749 22.526,65.87L9.541,52.681C15.579,40.543 24.114,29.822 34.586,21.225L50.314,30.97C57.272,26.095 64.972,22.381 73.115,19.972L75.315,1.58C88.554,-1.26 102.244,-1.26 115.484,1.58ZM95.399,69.588C109.694,69.588 121.299,81.212 121.299,95.53C121.299,109.847 109.694,121.471 95.399,121.471C81.105,121.471 69.499,109.847 69.499,95.53C69.499,81.212 81.105,69.588 95.399,69.588Z" style="fill:none;stroke:black;stroke-width:17.86px;"/>
        </g>
    </g>
</svg>
