<?xml version="1.0" encoding="UTF-8" standalone="no"?>
<!DOCTYPE svg PUBLIC "-//W3C//DTD SVG 1.1//EN" "http://www.w3.org/Graphics/SVG/1.1/DTD/svg11.dtd">
<svg width="100%" height="100%" viewBox="0 0 192 192" version="1.1" xmlns="http://www.w3.org/2000/svg" xmlns:xlink="http://www.w3.org/1999/xlink" xml:space="preserve" xmlns:serif="http://www.serif.com/" style="fill-rule:evenodd;clip-rule:evenodd;stroke-linecap:round;stroke-linejoin:round;stroke-miterlimit:1.5;">
    <g transform="matrix(1.58974,0,0,1.03603,-53.6667,-1.95589)">
        <path d="M52.008,90L130,90L130,60.692C130,43.778 122.825,28.833 112.298,23.819C98.075,17.052 84.008,16.863 70.091,23.072C59.371,27.892 52.006,42.983 52.009,60.124C52.006,74.639 52.008,90 52.008,90Z" style="fill:none;stroke:black;stroke-width:6.71px;"/>
    </g>
    <path d="M47,91.739L47,170.863" style="fill:none;stroke:black;stroke-width:9px;"/>
    <g transform="matrix(1,0,0,1,42,0)">
        <path d="M47,91.739L47,170.863" style="fill:none;stroke:black;stroke-width:9px;"/>
    </g>
    <g transform="matrix(1,0,0,1,86,0)">
        <path d="M47,91.739L47,170.863" style="fill:none;stroke:black;stroke-width:9px;"/>
    </g>
    <path d="M26.344,133.11C64.66,127.393 105.163,143.896 166.384,138.242" style="fill:none;stroke:black;stroke-width:9px;"/>
    <g transform="matrix(1,0,0,1,-1.83931,-1.71079)">
        <path d="M125.267,63.098L62.591,63.098C62.383,61.988 62.279,60.867 62.279,59.745C62.279,46.526 76.461,35.794 93.929,35.794C111.397,35.794 125.579,46.526 125.579,59.745C125.579,60.867 125.474,61.988 125.267,63.098Z" style="fill:none;stroke:black;stroke-width:4px;"/>
    </g>
    <g transform="matrix(1,0,0,1,2.93279,-0.244399)">
        <path d="M86.133,61.163L111.794,51.094" style="fill:none;stroke:black;stroke-width:4px;"/>
    </g>
</svg>
